<svg
	xmlns="http://www.w3.org/2000/svg"
	xmlns:xlink="http://www.w3.org/1999/xlink" width="170" height="172" viewBox="0 0 170 172" fill="none" class="featureSvg_GfXr" role="img">
	<path fill-rule="evenodd" style="fill:#fff" transform="translate(107 19)" d="M7.5 0C3.36 0 0 3.36 0 7.5 0 11.64 3.36 15 7.5 15c4.14 0 7.5-3.36 7.5-7.5C15 3.36 11.64 0 7.5 0Z"></path>
	<path fill-rule="evenodd" style="fill:#fff" transform="translate(43 40)" d="M7.5 0C3.36 0 0 3.36 0 7.5 0 11.64 3.36 15 7.5 15c4.14 0 7.5-3.36 7.5-7.5C15 3.36 11.64 0 7.5 0Z"></path>
	<path fill-rule="evenodd" style="fill:#2e8555" d="M10 172h150c5.52 0 10-4.48 10-10V10c0-5.52-4.48-10-10-10H10C4.48 0 0 4.48 0 10v152c0 5.52 4.48 10 10 10Z"></path>
	<g transform="translate(68 49)">
		<mask id="a" fill="#fff">
			<use xlink:href="#path_0"></use>
		</mask>
		<g mask="url(#a)">
			<path fill-rule="evenodd" style="fill:#fff" opacity="0.01" d="M0 74h74V0H0v74Z"></path>
		</g>
	</g>
	<g transform="translate(60 57)">
		<mask id="b" fill="#fff">
			<use xlink:href="#path_1"></use>
		</mask>
	</g>
	<g fill-rule="evenodd">
		<path style="fill:#fff" transform="translate(21 20)" d="M10 132c-5.52 0-10-4.48-10-10V10C0 4.48 4.48 0 10 0h110c5.52 0 10 4.48 10 10v112c0 5.52-4.48 10-10 10H10ZM4 10v112c0 .41.04.82.12 1.21a6.072 6.072 0 0 0 .9 2.14c.22.32.46.62.74.89.27.28.57.52.89.74.32.22.66.4 1.02.55.36.15.73.27 1.12.35.39.08.8.12 1.21.12h110c.41 0 .82-.04 1.21-.12.39-.08.76-.2 1.12-.35.36-.15.7-.33 1.02-.55.32-.22.62-.46.89-.74.28-.27.52-.57.74-.89.22-.32.4-.66.55-1.02.15-.36.27-.73.35-1.12.08-.39.12-.8.12-1.21V10c0-.41-.04-.82-.12-1.21-.08-.39-.2-.76-.35-1.12-.15-.36-.33-.7-.55-1.02-.22-.32-.46-.62-.74-.89-.27-.28-.57-.52-.89-.74a6.072 6.072 0 0 0-2.14-.9c-.39-.08-.8-.12-1.21-.12H10c-.41 0-.82.04-1.21.12a6.072 6.072 0 0 0-2.14.9c-.32.22-.62.46-.89.74-.28.27-.52.57-.74.89a6.072 6.072 0 0 0-.9 2.14C4.04 9.18 4 9.59 4 10Z"></path>
		<path style="fill:#fff" transform="translate(16 16)" d="M7.5 0C3.36 0 0 3.36 0 7.5 0 11.64 3.36 15 7.5 15c4.14 0 7.5-3.36 7.5-7.5C15 3.36 11.64 0 7.5 0Z"></path>
		<path style="fill:#fff" transform="translate(16 142)" d="M7.5 0C3.36 0 0 3.36 0 7.5 0 11.64 3.36 15 7.5 15c4.14 0 7.5-3.36 7.5-7.5C15 3.36 11.64 0 7.5 0Z"></path>
		<path style="fill:#fff" transform="translate(140 142)" d="M7.5 0C3.36 0 0 3.36 0 7.5 0 11.64 3.36 15 7.5 15c4.14 0 7.5-3.36 7.5-7.5C15 3.36 11.64 0 7.5 0Z"></path>
		<path style="fill:#fff" transform="translate(140 15)" d="M7.5 0C3.36 0 0 3.36 0 7.5 0 11.64 3.36 15 7.5 15c4.14 0 7.5-3.36 7.5-7.5C15 3.36 11.64 0 7.5 0Z"></path>
		<path style="fill:#fff" transform="translate(41.5 54.5)" d="M.06 2.4Q0 2.7 0 3v54c0 .2.02.4.06.6.04.2.1.39.18.57.07.18.17.35.27.51.11.16.23.3.37.44.14.14.28.26.44.37.16.1.33.2.51.27.18.08.37.14.57.18q.3.06.6.06h47.624a58.766 58.766 0 0 1-3.424-3.15c-.93-.92-1.81-1.86-2.66-2.82-.62-.69-1.18-1.36-1.69-2.01-.17-.2-.31-.39-.45-.57-.07-.09-.12-.16-.16-.21a.95.95 0 0 1-.1-.17c-.03-.06-.06-.12-.08-.18-.02-.06-.03-.13-.04-.19-.01-.07-.02-.13-.02-.2s.01-.13.02-.2c.01-.06.02-.13.04-.19s.05-.12.08-.18a.95.95 0 0 1 .1-.17c.04-.05.09-.12.16-.21.14-.18.28-.37.45-.57.51-.65 1.07-1.32 1.69-2.01.85-.96 1.73-1.9 2.66-2.82 1.15-1.15 2.33-2.22 3.53-3.24a50.655 50.655 0 0 1 3.77-2.887V31.9c0-.25.02-.49.07-.73.04-.26.12-.5.21-.75a4.039 4.039 0 0 1 1.53-1.87c.23-.15.47-.27.72-.37.24-.1.49-.17.74-.22a4.493 4.493 0 0 1 1.46 0c.25.05.5.12.74.22a3.937 3.937 0 0 1 1.36.89 4.039 4.039 0 0 1 .89 1.35c.09.25.17.49.21.75.05.24.07.48.07.73v1.835a29.114 29.114 0 0 1 3-.955q3.045-.78 6-.78t6 .78c.498.129.998.273 1.5.433V3c0-.2-.02-.4-.06-.6-.04-.2-.1-.39-.18-.57-.07-.18-.17-.35-.27-.51-.11-.16-.23-.3-.37-.44-.14-.14-.28-.26-.44-.37-.16-.1-.33-.2-.51-.27-.18-.08-.37-.14-.57-.18C76.4.02 76.2 0 76 0H3q-.3 0-.6.06t-.57.18c-.18.07-.35.17-.51.27-.16.11-.3.23-.44.37-.14.14-.26.28-.37.44-.1.16-.2.33-.27.51q-.12.27-.18.57Zm41.17 46.98c.25-.04.5-.12.74-.21.25-.1.49-.22.72-.37.23-.15.44-.33.64-.52.19-.2.37-.41.52-.64.15-.23.27-.47.37-.72.09-.24.17-.49.21-.74.05-.24.07-.49.07-.73v-30.9c0-.24-.02-.49-.07-.73-.04-.25-.12-.5-.21-.74-.1-.25-.22-.49-.37-.72-.15-.23-.33-.44-.52-.64-.2-.19-.41-.37-.64-.52-.23-.15-.47-.27-.72-.37a3.89 3.89 0 0 0-.74-.21c-.24-.05-.49-.07-.73-.07s-.49.02-.73.07c-.25.04-.5.12-.74.21-.25.1-.49.22-.72.37-.23.15-.44.33-.64.52-.19.2-.37.41-.52.64-.15.23-.27.47-.37.72-.09.24-.17.49-.21.74-.05.24-.07.49-.07.73v30.9c0 .24.02.49.07.73.04.25.12.5.21.74.1.25.22.49.37.72.15.23.33.44.52.64.2.19.41.37.64.52.23.15.47.27.72.37.24.09.49.17.74.21.24.05.49.07.73.07s.49-.02.73-.07Zm-18.73-.31c.24 0 .49-.02.73-.07.25-.05.5-.12.74-.21.25-.1.49-.23.72-.37.23-.16.44-.33.64-.52.19-.2.37-.41.52-.64.15-.23.27-.47.37-.72.09-.24.17-.49.21-.74.05-.25.07-.49.07-.73V21.9c0-.25-.02-.49-.07-.73-.04-.26-.12-.5-.21-.75a4.039 4.039 0 0 0-1.53-1.87c-.23-.15-.47-.27-.72-.37-.24-.1-.49-.17-.74-.22a4.493 4.493 0 0 0-1.46 0c-.25.05-.5.12-.74.22a3.937 3.937 0 0 0-1.36.89 4.039 4.039 0 0 0-.89 1.35c-.09.25-.17.49-.21.75-.05.24-.07.48-.07.73v23.17c0 .24.02.48.07.73.04.25.12.5.21.74.1.25.22.49.37.72.15.23.33.44.52.64.2.19.41.36.64.52.23.14.47.27.72.37.24.09.49.16.74.21.24.05.49.07.73.07Z"></path>
		<path style="fill:#fff" transform="translate(93.5 93.5)" d="M38.99 11.87c0-.04-.01-.08-.03-.12a.334.334 0 0 0-.05-.12.413.413 0 0 0-.07-.11c-.02-.04-.06-.08-.1-.14-.09-.11-.19-.24-.3-.37-.34-.42-.71-.85-1.11-1.3-.57-.62-1.15-1.23-1.76-1.83-.77-.74-1.54-1.44-2.34-2.1C32.3 5 31.35 4.3 30.4 3.67c-1.1-.72-2.19-1.33-3.28-1.85-1.23-.57-2.45-1.01-3.66-1.31C22.13.17 20.8 0 19.5 0q-1.95 0-3.96.51c-1.21.3-2.43.74-3.66 1.31-1.09.52-2.18 1.13-3.27 1.85-.96.63-1.9 1.33-2.84 2.11-.79.66-1.57 1.36-2.33 2.1-.61.6-1.2 1.21-1.76 1.83-.41.45-.78.88-1.12 1.3-.11.13-.21.26-.29.37-.05.06-.09.1-.11.14-.03.03-.05.07-.07.11-.02.03-.04.07-.05.12l-.03.12C0 11.91 0 11.96 0 12c0 .04 0 .08.01.13l.03.12c.01.04.03.08.05.12.02.04.04.07.07.11.02.03.06.08.11.14.08.11.18.23.29.37.34.41.71.85 1.12 1.3.56.62 1.15 1.23 1.76 1.83.76.74 1.54 1.44 2.33 2.1.94.77 1.88 1.47 2.84 2.1 1.09.72 2.18 1.34 3.27 1.85 1.23.58 2.45 1.02 3.66 1.32q2.01.51 3.96.51c1.3 0 2.63-.17 3.96-.51 1.21-.3 2.43-.74 3.66-1.32 1.09-.51 2.18-1.13 3.28-1.85.95-.63 1.9-1.33 2.83-2.1.8-.66 1.57-1.36 2.34-2.1.61-.6 1.19-1.21 1.76-1.83.4-.45.77-.89 1.11-1.3.11-.14.21-.26.3-.37.04-.06.08-.11.1-.14.03-.04.05-.07.07-.11.02-.04.04-.08.05-.12.02-.04.03-.08.03-.12.01-.05.01-.09.01-.13 0-.04 0-.09-.01-.13ZM19.97 7.318c2.57 0 4.65 2.1 4.65 4.68 0 2.58-2.08 4.68-4.65 4.68-2.57 0-4.66-2.1-4.66-4.68 0-2.58 2.09-4.68 4.66-4.68Z"></path>
	</g>
</svg>