<svg
    xmlns="http://www.w3.org/2000/svg"
    xmlns:xlink="http://www.w3.org/1999/xlink" width="170" height="172" viewBox="0 0 170 172" fill="none">
    <g opacity="1" transform="translate(0 0)  rotate(0 85 86)">
        <path id="圆形 1" fill-rule="evenodd" style="fill:#FFFFFF" transform="translate(107 19)  rotate(0 7.5 7.5)" opacity="1" d="M7.5,0C3.36,0 0,3.36 0,7.5C0,11.64 3.36,15 7.5,15C11.64,15 15,11.64 15,7.5C15,3.36 11.64,0 7.5,0Z " />
        <path id="圆形 1" fill-rule="evenodd" style="fill:#FFFFFF" transform="translate(43 40)  rotate(0 7.5 7.5)" opacity="1" d="M7.5,0C3.36,0 0,3.36 0,7.5C0,11.64 3.36,15 7.5,15C11.64,15 15,11.64 15,7.5C15,3.36 11.64,0 7.5,0Z " />
        <path id="矩形 3" fill-rule="evenodd" style="fill:#2E8555" transform="translate(0 0)  rotate(0 85 86)" opacity="1" d="M10,172L160,172C165.52,172 170,167.52 170,162L170,10C170,4.48 165.52,0 160,0L10,0C4.48,0 0,4.48 0,10L0,162C0,167.52 4.48,172 10,172Z " />
        <g opacity="1" transform="translate(68 49)  rotate(0 37 37)">
            <mask id="bg-mask-0" fill="white">
                <use xlink:href="#path_0"></use>
            </mask>
            <g mask="url(#bg-mask-0)" >
                <path id="路径 1" fill-rule="evenodd" style="fill:#FFFFFF" transform="translate(0 0)  rotate(0 37 37)" opacity="0.01" d="M0,74L74,74L74,0L0,0L0,74Z " />
            </g>
        </g>
        <g opacity="1" transform="translate(60 57)  rotate(0 9.75 5.775000000000006)">
            <mask id="bg-mask-1" fill="white">
                <use xlink:href="#path_1"></use>
            </mask>
            <g mask="url(#bg-mask-1)" >
                <path id="拼合图形" fill-rule="evenodd" style="fill:#FFFFFF" transform="translate(0 0)  rotate(0 0.5 0.5)" opacity="1" d="" />
            </g>
        </g>
        <g opacity="1" transform="translate(16 15)  rotate(0 69.5 71)">
            <path id="矩形 3 (轮廓)" fill-rule="evenodd" style="fill:#FFFFFF" transform="translate(5 5)  rotate(0 65 66)" opacity="1" d="M10 132C4.48 132 0 127.52 0 122L0 10C0 4.48 4.48 0 10 0L120 0C125.52 0 130 4.48 130 10L130 122C130 127.52 125.52 132 120 132L10 132ZM4 10L4 122C4 122.41 4.04 122.82 4.12 123.21C4.2 123.6 4.32 123.97 4.47 124.33C4.62 124.69 4.81 125.03 5.02 125.35C5.24 125.67 5.48 125.97 5.76 126.24C6.03 126.52 6.33 126.76 6.65 126.98C6.97 127.2 7.31 127.38 7.67 127.53C8.03 127.68 8.4 127.8 8.79 127.88C9.18 127.96 9.59 128 10 128L120 128C120.41 128 120.82 127.96 121.21 127.88C121.6 127.8 121.97 127.68 122.33 127.53C122.69 127.38 123.03 127.2 123.35 126.98C123.67 126.76 123.97 126.52 124.24 126.24C124.52 125.97 124.76 125.67 124.98 125.35C125.2 125.03 125.38 124.69 125.53 124.33C125.68 123.97 125.8 123.6 125.88 123.21C125.96 122.82 126 122.41 126 122L126 10C126 9.59 125.96 9.18 125.88 8.79C125.8 8.4 125.68 8.03 125.53 7.67C125.38 7.31 125.2 6.97 124.98 6.65C124.76 6.33 124.52 6.03 124.24 5.76C123.97 5.48 123.67 5.24 123.35 5.02C123.03 4.81 122.69 4.62 122.33 4.47C121.97 4.32 121.6 4.2 121.21 4.12C120.82 4.04 120.41 4 120 4L10 4C9.59 4 9.18 4.04 8.79 4.12C8.4 4.2 8.03 4.32 7.67 4.47C7.31 4.62 6.97 4.81 6.65 5.02C6.33 5.24 6.03 5.48 5.76 5.76C5.48 6.03 5.24 6.33 5.02 6.65C4.81 6.97 4.62 7.31 4.47 7.67C4.32 8.03 4.2 8.4 4.12 8.79C4.04 9.18 4 9.59 4 10Z" />
            <path id="圆形 1" fill-rule="evenodd" style="fill:#FFFFFF" transform="translate(0 1)  rotate(0 7.5 7.5)" opacity="1" d="M7.5,0C3.36,0 0,3.36 0,7.5C0,11.64 3.36,15 7.5,15C11.64,15 15,11.64 15,7.5C15,3.36 11.64,0 7.5,0Z " />
            <path id="圆形 1" fill-rule="evenodd" style="fill:#FFFFFF" transform="translate(0 127)  rotate(0 7.5 7.5)" opacity="1" d="M7.5,0C3.36,0 0,3.36 0,7.5C0,11.64 3.36,15 7.5,15C11.64,15 15,11.64 15,7.5C15,3.36 11.64,0 7.5,0Z " />
            <path id="圆形 1" fill-rule="evenodd" style="fill:#FFFFFF" transform="translate(124 127)  rotate(0 7.5 7.5)" opacity="1" d="M7.5,0C3.36,0 0,3.36 0,7.5C0,11.64 3.36,15 7.5,15C11.64,15 15,11.64 15,7.5C15,3.36 11.64,0 7.5,0Z " />
            <path id="圆形 1" fill-rule="evenodd" style="fill:#FFFFFF" transform="translate(124 0)  rotate(0 7.5 7.5)" opacity="1" d="M7.5,0C3.36,0 0,3.36 0,7.5C0,11.64 3.36,15 7.5,15C11.64,15 15,11.64 15,7.5C15,3.36 11.64,0 7.5,0Z " />
            <g opacity="1" transform="translate(25.5 39.5)  rotate(0 45.5 31.5)">
                <path id="减去顶层" fill-rule="evenodd" style="fill:#FFFFFF" transform="translate(0 0)  rotate(0 39.5 30)" opacity="1" d="M0.06 2.4Q0 2.7 0 3L0 57C0 57.2 0.02 57.4 0.06 57.6C0.1 57.8 0.16 57.99 0.24 58.17C0.31 58.35 0.41 58.52 0.51 58.68C0.62 58.84 0.74 58.98 0.88 59.12C1.02 59.26 1.16 59.38 1.32 59.49C1.48 59.59 1.65 59.69 1.83 59.76C2.01 59.84 2.2 59.9 2.4 59.94Q2.7 60 3 60L50.6243 60C49.4607 59.0071 48.3162 57.9662 47.2 56.85C46.27 55.93 45.39 54.99 44.54 54.03C43.92 53.34 43.36 52.67 42.85 52.02C42.68 51.82 42.54 51.63 42.4 51.45C42.33 51.36 42.28 51.29 42.24 51.24C42.2 51.19 42.17 51.13 42.14 51.07C42.11 51.01 42.08 50.95 42.06 50.89C42.04 50.83 42.03 50.76 42.02 50.7C42.01 50.63 42 50.57 42 50.5C42 50.43 42.01 50.37 42.02 50.3C42.03 50.24 42.04 50.17 42.06 50.11C42.08 50.05 42.11 49.99 42.14 49.93C42.17 49.87 42.2 49.81 42.24 49.76C42.28 49.71 42.33 49.64 42.4 49.55C42.54 49.37 42.68 49.18 42.85 48.98C43.36 48.33 43.92 47.66 44.54 46.97C45.39 46.01 46.27 45.07 47.2 44.15C48.35 43 49.53 41.93 50.73 40.91C51.9789 39.8634 53.2356 38.8941 54.5 38.0226L54.5 31.9C54.5 31.65 54.52 31.41 54.57 31.17C54.61 30.91 54.69 30.67 54.78 30.42C54.88 30.17 55 29.93 55.15 29.71C55.3 29.48 55.48 29.26 55.67 29.07C55.87 28.87 56.08 28.7 56.31 28.55C56.54 28.4 56.78 28.28 57.03 28.18C57.27 28.08 57.52 28.01 57.77 27.96C58.01 27.92 58.26 27.9 58.5 27.9C58.74 27.9 58.99 27.92 59.23 27.96C59.48 28.01 59.73 28.08 59.97 28.18C60.22 28.28 60.46 28.4 60.69 28.55C60.92 28.7 61.13 28.87 61.33 29.07C61.52 29.26 61.7 29.48 61.85 29.71C62 29.93 62.12 30.17 62.22 30.42C62.31 30.67 62.39 30.91 62.43 31.17C62.48 31.41 62.5 31.65 62.5 31.9L62.5 33.7349C63.5057 33.3552 64.5073 33.0364 65.5 32.78Q68.545 32 71.5 32Q74.455 32 77.5 32.78C77.998 32.9086 78.4982 33.0529 79 33.2127L79 3C79 2.8 78.98 2.6 78.94 2.4C78.9 2.2 78.84 2.01 78.76 1.83C78.69 1.65 78.59 1.48 78.49 1.32C78.38 1.16 78.26 1.02 78.12 0.88C77.98 0.74 77.84 0.62 77.68 0.51C77.52 0.41 77.35 0.31 77.17 0.24C76.99 0.16 76.8 0.1 76.6 0.06C76.4 0.02 76.2 0 76 0L3 0Q2.7 0 2.4 0.06Q2.1 0.12 1.83 0.24C1.65 0.31 1.48 0.41 1.32 0.51C1.16 0.62 1.02 0.74 0.88 0.88C0.74 1.02 0.62 1.16 0.51 1.32C0.41 1.48 0.31 1.65 0.24 1.83Q0.12 2.1 0.06 2.4Z M41.23 49.38C41.48 49.34 41.73 49.26 41.97 49.17C42.22 49.07 42.46 48.95 42.69 48.8C42.92 48.65 43.13 48.47 43.33 48.28C43.52 48.08 43.7 47.87 43.85 47.64C44 47.41 44.12 47.17 44.22 46.92C44.31 46.68 44.39 46.43 44.43 46.18C44.48 45.94 44.5 45.69 44.5 45.45L44.5 14.55C44.5 14.31 44.48 14.06 44.43 13.82C44.39 13.57 44.31 13.32 44.22 13.08C44.12 12.83 44 12.59 43.85 12.36C43.7 12.13 43.52 11.92 43.33 11.72C43.13 11.53 42.92 11.35 42.69 11.2C42.46 11.05 42.22 10.93 41.97 10.83C41.73 10.74 41.48 10.66 41.23 10.62C40.99 10.57 40.74 10.55 40.5 10.55C40.26 10.55 40.01 10.57 39.77 10.62C39.52 10.66 39.27 10.74 39.03 10.83C38.78 10.93 38.54 11.05 38.31 11.2C38.08 11.35 37.87 11.53 37.67 11.72C37.48 11.92 37.3 12.13 37.15 12.36C37 12.59 36.88 12.83 36.78 13.08C36.69 13.32 36.61 13.57 36.57 13.82C36.52 14.06 36.5 14.31 36.5 14.55L36.5 45.45C36.5 45.69 36.52 45.94 36.57 46.18C36.61 46.43 36.69 46.68 36.78 46.92C36.88 47.17 37 47.41 37.15 47.64C37.3 47.87 37.48 48.08 37.67 48.28C37.87 48.47 38.08 48.65 38.31 48.8C38.54 48.95 38.78 49.07 39.03 49.17C39.27 49.26 39.52 49.34 39.77 49.38C40.01 49.43 40.26 49.45 40.5 49.45C40.74 49.45 40.99 49.43 41.23 49.38Z M22.5 49.07C22.74 49.07 22.99 49.05 23.23 49C23.48 48.95 23.73 48.88 23.97 48.79C24.22 48.69 24.46 48.56 24.69 48.42C24.92 48.26 25.13 48.09 25.33 47.9C25.52 47.7 25.7 47.49 25.85 47.26C26 47.03 26.12 46.79 26.22 46.54C26.31 46.3 26.39 46.05 26.43 45.8C26.48 45.55 26.5 45.31 26.5 45.07L26.5 21.9C26.5 21.65 26.48 21.41 26.43 21.17C26.39 20.91 26.31 20.67 26.22 20.42C26.12 20.17 26 19.93 25.85 19.71C25.7 19.48 25.52 19.26 25.33 19.07C25.13 18.87 24.92 18.7 24.69 18.55C24.46 18.4 24.22 18.28 23.97 18.18C23.73 18.08 23.48 18.01 23.23 17.96C22.99 17.92 22.74 17.9 22.5 17.9C22.26 17.9 22.01 17.92 21.77 17.96C21.52 18.01 21.27 18.08 21.03 18.18C20.78 18.28 20.54 18.4 20.31 18.55C20.08 18.7 19.87 18.87 19.67 19.07C19.48 19.26 19.3 19.48 19.15 19.71C19 19.93 18.88 20.17 18.78 20.42C18.69 20.67 18.61 20.91 18.57 21.17C18.52 21.41 18.5 21.65 18.5 21.9L18.5 45.07C18.5 45.31 18.52 45.55 18.57 45.8C18.61 46.05 18.69 46.3 18.78 46.54C18.88 46.79 19 47.03 19.15 47.26C19.3 47.49 19.48 47.7 19.67 47.9C19.87 48.09 20.08 48.26 20.31 48.42C20.54 48.56 20.78 48.69 21.03 48.79C21.27 48.88 21.52 48.95 21.77 49C22.01 49.05 22.26 49.07 22.5 49.07Z " />
                <path id="减去顶层" fill-rule="evenodd" style="fill:#FFFFFF" transform="translate(52 39)  rotate(0 19.5 12)" opacity="1" d="M38.99 11.87C38.99 11.83 38.98 11.79 38.96 11.75C38.95 11.7 38.93 11.66 38.91 11.63C38.89 11.59 38.87 11.55 38.84 11.52C38.82 11.48 38.78 11.44 38.74 11.38C38.65 11.27 38.55 11.14 38.44 11.01C38.1 10.59 37.73 10.16 37.33 9.71C36.76 9.09 36.18 8.48 35.57 7.88C34.8 7.14 34.03 6.44 33.23 5.78C32.3 5 31.35 4.3 30.4 3.67C29.3 2.95 28.21 2.34 27.12 1.82C25.89 1.25 24.67 0.81 23.46 0.51C22.13 0.17 20.8 0 19.5 0Q17.55 0 15.54 0.51C14.33 0.81 13.11 1.25 11.88 1.82C10.79 2.34 9.7 2.95 8.61 3.67C7.65 4.3 6.71 5 5.77 5.78C4.98 6.44 4.2 7.14 3.44 7.88C2.83 8.48 2.24 9.09 1.68 9.71C1.27 10.16 0.9 10.59 0.56 11.01C0.45 11.14 0.35 11.27 0.27 11.38C0.22 11.44 0.18 11.48 0.16 11.52C0.13 11.55 0.11 11.59 0.09 11.63C0.07 11.66 0.05 11.7 0.04 11.75L0.01 11.87C0 11.91 0 11.96 0 12C0 12.04 0 12.08 0.01 12.13L0.04 12.25C0.05 12.29 0.07 12.33 0.09 12.37C0.11 12.41 0.13 12.44 0.16 12.48C0.18 12.51 0.22 12.56 0.27 12.62C0.35 12.73 0.45 12.85 0.56 12.99C0.9 13.4 1.27 13.84 1.68 14.29C2.24 14.91 2.83 15.52 3.44 16.12C4.2 16.86 4.98 17.56 5.77 18.22C6.71 18.99 7.65 19.69 8.61 20.32C9.7 21.04 10.79 21.66 11.88 22.17C13.11 22.75 14.33 23.19 15.54 23.49Q17.55 24 19.5 24C20.8 24 22.13 23.83 23.46 23.49C24.67 23.19 25.89 22.75 27.12 22.17C28.21 21.66 29.3 21.04 30.4 20.32C31.35 19.69 32.3 18.99 33.23 18.22C34.03 17.56 34.8 16.86 35.57 16.12C36.18 15.52 36.76 14.91 37.33 14.29C37.73 13.84 38.1 13.4 38.44 12.99C38.55 12.85 38.65 12.73 38.74 12.62C38.78 12.56 38.82 12.51 38.84 12.48C38.87 12.44 38.89 12.41 38.91 12.37C38.93 12.33 38.95 12.29 38.96 12.25C38.98 12.21 38.99 12.17 38.99 12.13C39 12.08 39 12.04 39 12C39 11.96 39 11.91 38.99 11.87Z M19.9698 7.31816C22.5398 7.31816 24.6198 9.41816 24.6198 11.9982C24.6198 14.5782 22.5398 16.6782 19.9698 16.6782C17.3998 16.6782 15.3098 14.5782 15.3098 11.9982C15.3098 9.41816 17.3998 7.31816 19.9698 7.31816Z " />
            </g>
        </g>
    </g>
</svg>