<svg
	xmlns="http://www.w3.org/2000/svg" width="180" height="180" viewBox="0 0 180 180" fill="none" class="featureSvg_GfXr" role="img">
	<path fill-rule="evenodd" style="fill:#2e8555" d="M0 90c0 49.71 40.3 90 90.01 90C139.7 180 180 139.71 180 90S139.7 0 90.01 0C40.3 0 0 40.29 0 90Z"></path>
	<path fill-rule="evenodd" style="fill:#fff" transform="translate(20.154 20.97)" d="M69.03 138.07C30.91 138.07 0 107.16 0 69.03 0 30.91 30.91 0 69.03 0c38.13 0 69.04 30.91 69.04 69.03 0 38.13-30.91 69.04-69.04 69.04Zm64.7-62.38q.33-3.315.33-6.66c0-2.23-.11-4.45-.33-6.65-.22-2.18-.55-4.33-.99-6.46-.43-2.1-.96-4.18-1.61-6.23-.63-2.03-1.35-4.02-2.18-5.97-.82-1.94-1.73-3.83-2.74-5.69-1-1.83-2.08-3.62-3.25-5.36a67.853 67.853 0 0 0-3.75-5 63.377 63.377 0 0 0-4.2-4.62q-2.205-2.22-4.62-4.2c-1.6-1.33-3.28-2.58-5-3.75a67.066 67.066 0 0 0-5.36-3.25 64.608 64.608 0 0 0-5.69-2.74c-1.96-.83-3.94-1.56-5.97-2.19-2.05-.63-4.13-1.17-6.23-1.6a63.71 63.71 0 0 0-6.46-.98c-2.2-.23-4.42-.34-6.65-.34-2.24 0-4.45.11-6.65.34-2.17.22-4.32.54-6.46.98-2.1.43-4.18.97-6.22 1.6-2.03.63-4.02 1.36-5.98 2.19a65.813 65.813 0 0 0-11.04 5.99c-1.72 1.17-3.4 2.42-5 3.75q-2.415 1.98-4.62 4.2a63.377 63.377 0 0 0-4.2 4.62 67.853 67.853 0 0 0-3.75 5 68.241 68.241 0 0 0-3.25 5.36 64.608 64.608 0 0 0-2.74 5.69c-.83 1.95-1.55 3.94-2.18 5.97-.65 2.05-1.18 4.13-1.61 6.23-.44 2.13-.76 4.28-.98 6.46-.23 2.2-.34 4.42-.34 6.65 0 2.23.11 4.45.34 6.66.22 2.17.54 4.32.98 6.45.43 2.11.96 4.19 1.61 6.24.63 2.02 1.35 4.01 2.18 5.97.82 1.94 1.73 3.83 2.74 5.68 1 1.84 2.08 3.63 3.25 5.37a70.04 70.04 0 0 0 3.75 5c1.32 1.61 2.73 3.15 4.2 4.62q2.205 2.22 4.62 4.2c1.6 1.33 3.28 2.58 5 3.75a65.813 65.813 0 0 0 11.04 5.99c1.96.83 3.95 1.56 5.98 2.19 2.04.63 4.12 1.17 6.22 1.6 2.14.44 4.29.76 6.46.98 2.2.23 4.41.34 6.65.34 2.23 0 4.45-.11 6.65-.34 2.18-.22 4.32-.54 6.46-.98 2.1-.43 4.18-.97 6.23-1.6 2.03-.63 4.01-1.36 5.97-2.19 1.94-.82 3.83-1.73 5.69-2.74 1.83-.99 3.61-2.08 5.36-3.25 1.72-1.17 3.4-2.42 5-3.75q2.415-1.98 4.62-4.2c1.47-1.47 2.88-3.01 4.2-4.62a70.04 70.04 0 0 0 3.75-5 66.63 66.63 0 0 0 3.25-5.37c1.01-1.85 1.92-3.74 2.74-5.68.83-1.96 1.55-3.95 2.18-5.98.65-2.04 1.18-4.12 1.61-6.23.44-2.13.77-4.28.99-6.45Z"></path>
	<path fill-rule="evenodd" style="fill:#fff" transform="translate(148.506 78.754)" d="M0 7.67c0 4.24 3.44 7.67 7.67 7.67 4.24 0 7.67-3.43 7.67-7.67S11.91 0 7.67 0C3.44 0 0 3.43 0 7.67Z"></path>
	<path fill-rule="evenodd" style="fill:#fff" transform="translate(39.074 132.959)" d="M0 7.67c0 4.24 3.44 7.67 7.67 7.67 4.24 0 7.67-3.43 7.67-7.67S11.91 0 7.67 0C3.44 0 0 3.43 0 7.67Z"></path>
	<path fill-rule="evenodd" style="fill:#fff" transform="translate(54.415 21.481)" d="M0 7.67c0 4.24 3.44 7.67 7.67 7.67 4.24 0 7.67-3.43 7.67-7.67S11.91 0 7.67 0C3.44 0 0 3.43 0 7.67Z"></path>
	<path fill-rule="evenodd" style="fill:#fff" transform="translate(55.92 57.004)" d="M30.07 20.31c16.6 0 30.06-4.55 30.06-10.16C60.13 4.55 46.67 0 30.07 0 13.46 0 0 4.55 0 10.15c0 5.61 13.46 10.16 30.07 10.16ZM0 25.385c.01 5.61 13.35 10.16 29.81 10.16 3.42 0 6.7-.2 9.75-.56 3.58-5.19 9.57-8.59 16.36-8.59 1.18 0 2.34.11 3.46.3.16-.43.25-.87.25-1.31v-11.17c-.01 5.61-13.35 10.16-29.82 10.16-16.46 0-29.8-4.55-29.81-10.16v11.17Zm29.81 14.221c-16.46 0-29.8-4.55-29.81-10.16v11.17c.01 5.61 13.35 10.16 29.81 10.16 2.32 0 4.58-.09 6.74-.26-.31-1.39-.47-2.84-.47-4.32 0-2.43.44-4.76 1.24-6.92-2.4.21-4.91.33-7.51.33Zm0 15.231c-16.46 0-29.8-4.55-29.81-10.16v11.17c.01 5.61 13.35 10.16 29.81 10.16 6.56 0 12.62-.73 17.54-1.95-4.17-1.99-7.53-5.4-9.47-9.6-2.56.24-5.27.38-8.07.38Z"></path>
	<path fill-rule="evenodd" style="fill:#fff" transform="translate(98.012 103.801)" d="M15.03 14.4c8.3 0 15.04-6.45 15.04-14.4H0c0 7.95 6.73 14.4 15.03 14.4Z"></path>
	<path style="stroke:#fff;stroke-width:3;stroke-opacity:1;stroke-dasharray:0 0" transform="translate(104.025 90.602)" d="M0 14.4h18.04V8.64C18.04 3.87 14 0 9.02 0 4.04 0 0 3.87 0 8.64v5.76Z"></path>
</svg>