<svg
    xmlns="http://www.w3.org/2000/svg"
    xmlns:xlink="http://www.w3.org/1999/xlink" width="180" height="180" viewBox="0 0 180 180" fill="none">
    <g opacity="1" transform="translate(0 0)  rotate(0 90 90)">
        <g opacity="1" transform="translate(0 0)  rotate(0 90 90)">
            <path id="圆形 3" fill-rule="evenodd" style="fill:#2E8555" transform="translate(0 0)  rotate(0 90 90)" opacity="1" d="M0,90C0,139.71 40.3,180 90.01,180C139.7,180 180,139.71 180,90C180,40.29 139.7,0 90.01,0C40.3,0 0,40.29 0,90Z " />
            <path id="圆形 3 (轮廓)" fill-rule="evenodd" style="fill:#FFFFFF" transform="translate(20.153666276933482 20.9699999999998)  rotate(0 69.03457491231 69.035)" opacity="1" d="M69.03 138.07C30.91 138.07 0 107.16 0 69.03C0 30.91 30.91 0 69.03 0C107.16 0 138.07 30.91 138.07 69.03C138.07 107.16 107.16 138.07 69.03 138.07ZM133.73 75.69Q134.06 72.375 134.06 69.03C134.06 66.8 133.95 64.58 133.73 62.38C133.51 60.2 133.18 58.05 132.74 55.92C132.31 53.82 131.78 51.74 131.13 49.69C130.5 47.66 129.78 45.67 128.95 43.72C128.13 41.78 127.22 39.89 126.21 38.03C125.21 36.2 124.13 34.41 122.96 32.67C121.78 30.94 120.54 29.28 119.21 27.67C117.89 26.06 116.48 24.52 115.01 23.05Q112.805 20.83 110.39 18.85C108.79 17.52 107.11 16.27 105.39 15.1C103.64 13.93 101.86 12.84 100.03 11.85C98.17 10.84 96.28 9.93 94.34 9.11C92.38 8.28 90.4 7.55 88.37 6.92C86.32 6.29 84.24 5.75 82.14 5.32C80 4.88 77.86 4.56 75.68 4.34C73.48 4.11 71.26 4 69.03 4C66.79 4 64.58 4.11 62.38 4.34C60.21 4.56 58.06 4.88 55.92 5.32C53.82 5.75 51.74 6.29 49.7 6.92C47.67 7.55 45.68 8.28 43.72 9.11C41.79 9.93 39.9 10.84 38.04 11.85C36.21 12.84 34.41 13.93 32.68 15.1C30.96 16.27 29.28 17.52 27.68 18.85Q25.265 20.83 23.06 23.05C21.59 24.52 20.18 26.06 18.86 27.67C17.53 29.28 16.29 30.94 15.11 32.67C13.94 34.41 12.86 36.2 11.86 38.03C10.85 39.89 9.94 41.78 9.12 43.72C8.29 45.67 7.57 47.66 6.94 49.69C6.29 51.74 5.76 53.82 5.33 55.92C4.89 58.05 4.57 60.2 4.35 62.38C4.12 64.58 4.01 66.8 4.01 69.03C4.01 71.26 4.12 73.48 4.35 75.69C4.57 77.86 4.89 80.01 5.33 82.14C5.76 84.25 6.29 86.33 6.94 88.38C7.57 90.4 8.29 92.39 9.12 94.35C9.94 96.29 10.85 98.18 11.86 100.03C12.86 101.87 13.94 103.66 15.11 105.4C16.29 107.12 17.53 108.79 18.86 110.4C20.18 112.01 21.59 113.55 23.06 115.02Q25.265 117.24 27.68 119.22C29.28 120.55 30.96 121.8 32.68 122.97C34.41 124.14 36.21 125.23 38.04 126.22C39.9 127.23 41.79 128.14 43.72 128.96C45.68 129.79 47.67 130.52 49.7 131.15C51.74 131.78 53.82 132.32 55.92 132.75C58.06 133.19 60.21 133.51 62.38 133.73C64.58 133.96 66.79 134.07 69.03 134.07C71.26 134.07 73.48 133.96 75.68 133.73C77.86 133.51 80 133.19 82.14 132.75C84.24 132.32 86.32 131.78 88.37 131.15C90.4 130.52 92.38 129.79 94.34 128.96C96.28 128.14 98.17 127.23 100.03 126.22C101.86 125.23 103.64 124.14 105.39 122.97C107.11 121.8 108.79 120.55 110.39 119.22Q112.805 117.24 115.01 115.02C116.48 113.55 117.89 112.01 119.21 110.4C120.54 108.79 121.78 107.12 122.96 105.4C124.13 103.66 125.21 101.87 126.21 100.03C127.22 98.18 128.13 96.29 128.95 94.35C129.78 92.39 130.5 90.4 131.13 88.37C131.78 86.33 132.31 84.25 132.74 82.14C133.18 80.01 133.51 77.86 133.73 75.69Z" />
            <path id="圆形 1" fill-rule="evenodd" style="fill:#FFFFFF" transform="translate(148.50612223921064 78.75409090909068)  rotate(0 7.671621847335894 7.67)" opacity="1" d="M0,7.67C0,11.91 3.44,15.34 7.67,15.34C11.91,15.34 15.34,11.91 15.34,7.67C15.34,3.43 11.91,0 7.67,0C3.44,0 0,3.43 0,7.67Z " />
            <path id="圆形 1" fill-rule="evenodd" style="fill:#FFFFFF" transform="translate(39.07414783312568 132.95863636363617)  rotate(0 7.671621847335894 7.67)" opacity="1" d="M0,7.67C0,11.91 3.44,15.34 7.67,15.34C11.91,15.34 15.34,11.91 15.34,7.67C15.34,3.43 11.91,0 7.67,0C3.44,0 0,3.43 0,7.67Z " />
            <path id="圆形 1" fill-rule="evenodd" style="fill:#FFFFFF" transform="translate(54.415078824632985 21.481363636363426)  rotate(0 7.671621847335894 7.67)" opacity="1" d="M0,7.67C0,11.91 3.44,15.34 7.67,15.34C11.91,15.34 15.34,11.91 15.34,7.67C15.34,3.43 11.91,0 7.67,0C3.44,0 0,3.43 0,7.67Z " />
            <g opacity="1" transform="translate(55.92090555177252 57.00409090909068)  rotate(0 36.078169366961745 33.0012)">
                <path id="减去顶层" fill-rule="evenodd" style="fill:#FFFFFF" transform="translate(0 0)  rotate(0 30.06514113913479 33.0012)" opacity="1" d="M30.07 20.31C46.67 20.31 60.13 15.76 60.13 10.15C60.13 4.55 46.67 0 30.07 0C13.46 0 0 4.55 0 10.15C0 15.76 13.46 20.31 30.07 20.31Z M0 25.3854L0 25.3854C0.01 30.9954 13.35 35.5454 29.81 35.5454C33.23 35.5454 36.51 35.3454 39.56 34.9854C43.14 29.7954 49.13 26.3954 55.92 26.3954C57.1 26.3954 58.26 26.5054 59.38 26.6954C59.54 26.2654 59.63 25.8254 59.63 25.3854L59.63 14.2154C59.62 19.8254 46.28 24.3754 29.81 24.3754C13.35 24.3754 0.01 19.8254 0 14.2154L0 25.3854Z M29.81 39.6062C13.35 39.6062 0.01 35.0562 0 29.4462L0 40.6162L0 40.6162C0.01 46.2262 13.35 50.7762 29.81 50.7762C32.13 50.7762 34.39 50.6862 36.55 50.5162C36.24 49.1262 36.08 47.6762 36.08 46.1962C36.08 43.7662 36.52 41.4362 37.32 39.2762C34.92 39.4862 32.41 39.6062 29.81 39.6062Z M29.81 54.8371C13.35 54.8371 0.01 50.2871 0 44.6771L0 55.8471L0 55.8471C0.01 61.4571 13.35 66.0071 29.81 66.0071C36.37 66.0071 42.43 65.2771 47.35 64.0571C43.18 62.0671 39.82 58.6571 37.88 54.4571C35.32 54.6971 32.61 54.8371 29.81 54.8371Z " />
                <path id="路径 7" fill-rule="evenodd" style="fill:#FFFFFF" transform="translate(42.091197594788696 46.797084298038214)  rotate(0 15.032570569567396 7.2)" opacity="1" d="M15.03,14.4C23.33,14.4 30.07,7.95 30.07,0L0,0C0,7.95 6.73,14.4 15.03,14.4Z " />
                <path  id="路径 8" style="stroke:#FFFFFF; stroke-width:3; stroke-opacity:1; stroke-dasharray:0 0" transform="translate(48.10422582261569 33.59790667551462)  rotate(0 9.019542341740436 7.2)" d="M0,14.4L18.04,14.4L18.04,8.64C18.04,3.87 14,0 9.02,0C4.04,0 0,3.87 0,8.64L0,14.4Z " />
            </g>
        </g>
    </g>
</svg>