<svg
    xmlns="http://www.w3.org/2000/svg"
    xmlns:xlink="http://www.w3.org/1999/xlink" width="180" height="180" viewBox="0 0 180 180" fill="none">
    <g opacity="1" transform="translate(0 0)  rotate(0 90 90)">
        <path id="多边形 1" fill-rule="evenodd" style="fill:#2E8555" transform="translate(0 0)  rotate(0 90 90)" opacity="1" d="M85,2.89L17.06,42.11C13.97,43.9 12.06,47.2 12.06,50.77L12.06,129.23C12.06,132.8 13.97,136.1 17.06,137.89L85,177.11C88.09,178.9 91.91,178.9 95,177.11L162.94,137.89C166.03,136.1 167.94,132.8 167.94,129.23L167.94,50.77C167.94,47.2 166.03,43.9 162.94,42.11L95,2.89C91.91,1.1 88.09,1.1 85,2.89Z " />
        <g opacity="1" transform="translate(24.3 15.3)  rotate(0 66.15 75.14999999999999)">
            <path id="并集" fill-rule="evenodd" style="fill:#FFFFFF" transform="translate(27.45 45)  rotate(0 38.25 30.6)" opacity="1" d="M23.2789 55.37C32.7689 53.84 55.6689 50.58 66.5589 23.31C61.2089 31.29 49.8289 49.91 12.3689 51C6.57887 51.17 -0.00113487 32.06 12.3689 22.59C20.3209 15.9499 28.8627 16.3597 36.5653 16.7292C39.4305 16.8667 42.1795 16.9986 44.7389 16.76C56.3789 15.66 70.5589 4.74 71.6489 0C74.2689 6.01 81.1089 33.51 71.6489 46.63C63.8627 59.2362 49.4032 58.2379 38.6518 57.4956C36.3544 57.3369 34.2263 57.19 32.3689 57.19C21.8189 57.19 18.1889 57.19 15.2789 59.01C16.0389 58.03 17.8189 55.74 23.2789 55.37Z M0 56.1C0 53.28 2.28 51 5.09 51C7.9 51 10.18 53.28 10.18 56.1C10.18 58.92 7.9 61.2 5.09 61.2C2.28 61.2 0 58.92 0 56.1Z " />
            <path id="多边形 1 (轮廓)" fill-rule="evenodd" style="fill:#FFFFFF" transform="translate(4.121999999999932 4.5)  rotate(0 61.57799999999999 71.10000000000001)" opacity="1" d="M0 106.65L0 35.55L61.58 0L123.16 35.55L123.16 106.65L61.58 142.2L0 106.65ZM119.56 37.63L119.56 104.57L61.58 138.04L3.6 104.57L3.6 37.63L61.58 4.16L119.56 37.63Z" />
            <path id="圆形 1" fill-rule="evenodd" style="fill:#FFFFFF" transform="translate(59.39999999999999 0)  rotate(0 6.75 6.75)" opacity="1" d="M6.75,0C3.02,0 0,3.02 0,6.75C0,10.48 3.02,13.5 6.75,13.5C10.48,13.5 13.5,10.48 13.5,6.75C13.5,3.02 10.48,0 6.75,0Z " />
            <path id="圆形 1" fill-rule="evenodd" style="fill:#FFFFFF" transform="translate(118.80000000000003 34.199999999999996)  rotate(0 6.75 6.75)" opacity="1" d="M6.75,0C3.02,0 0,3.02 0,6.75C0,10.48 3.02,13.5 6.75,13.5C10.48,13.5 13.5,10.48 13.5,6.75C13.5,3.02 10.48,0 6.75,0Z " />
            <path id="圆形 1" fill-rule="evenodd" style="fill:#FFFFFF" transform="translate(118.80000000000003 102.60000000000001)  rotate(0 6.75 6.75)" opacity="1" d="M6.75,0C3.02,0 0,3.02 0,6.75C0,10.48 3.02,13.5 6.75,13.5C10.48,13.5 13.5,10.48 13.5,6.75C13.5,3.02 10.48,0 6.75,0Z " />
            <path id="圆形 1" fill-rule="evenodd" style="fill:#FFFFFF" transform="translate(59.39999999999999 136.79999999999998)  rotate(0 6.75 6.75)" opacity="1" d="M6.75,0C3.02,0 0,3.02 0,6.75C0,10.48 3.02,13.5 6.75,13.5C10.48,13.5 13.5,10.48 13.5,6.75C13.5,3.02 10.48,0 6.75,0Z " />
            <path id="圆形 1" fill-rule="evenodd" style="fill:#FFFFFF" transform="translate(0 102.60000000000001)  rotate(0 6.75 6.75)" opacity="1" d="M6.75,0C3.02,0 0,3.02 0,6.75C0,10.48 3.02,13.5 6.75,13.5C10.48,13.5 13.5,10.48 13.5,6.75C13.5,3.02 10.48,0 6.75,0Z " />
            <path id="圆形 1" fill-rule="evenodd" style="fill:#FFFFFF" transform="translate(0 34.199999999999996)  rotate(0 6.75 6.75)" opacity="1" d="M6.75,0C3.02,0 0,3.02 0,6.75C0,10.48 3.02,13.5 6.75,13.5C10.48,13.5 13.5,10.48 13.5,6.75C13.5,3.02 10.48,0 6.75,0Z " />
        </g>
    </g>
</svg>