<svg
	xmlns="http://www.w3.org/2000/svg" width="180" height="180" viewBox="0 0 180 180" fill="none" class="featureSvg_GfXr" role="img">
	<g fill-rule="evenodd">
		<path style="fill:#2e8555" d="M85 2.89 17.06 42.11c-3.09 1.79-5 5.09-5 8.66v78.46c0 3.57 1.91 6.87 5 8.66L85 177.11a9.982 9.982 0 0 0 10 0l67.94-39.22c3.09-1.79 5-5.09 5-8.66V50.77c0-3.57-1.91-6.87-5-8.66L95 2.89a9.982 9.982 0 0 0-10 0Z"></path>
		<path style="fill:#fff" transform="translate(51.75 60.3)" d="M23.279 55.37c9.49-1.53 32.39-4.79 43.28-32.06-5.35 7.98-16.73 26.6-54.19 27.69-5.79.17-12.37-18.94 0-28.41 7.952-6.64 16.494-6.23 24.196-5.86 2.866.137 5.614.269 8.174.03 11.64-1.1 25.82-12.02 26.91-16.76 2.62 6.01 9.46 33.51 0 46.63-7.786 12.606-22.246 11.608-32.997 10.866-2.298-.16-4.426-.306-6.283-.306-10.55 0-14.18 0-17.09 1.82.76-.98 2.54-3.27 8-3.64ZM0 56.1C0 53.28 2.28 51 5.09 51s5.09 2.28 5.09 5.1-2.28 5.1-5.09 5.1S0 58.92 0 56.1Z"></path>
		<path style="fill:#fff" transform="translate(28.422 19.8)" d="M0 106.65v-71.1L61.58 0l61.58 35.55v71.1L61.58 142.2 0 106.65Zm119.56-69.02v66.94l-57.98 33.47L3.6 104.57V37.63L61.58 4.16l57.98 33.47Z"></path>
		<path style="fill:#fff" transform="translate(83.7 15.3)" d="M6.75 0C3.02 0 0 3.02 0 6.75s3.02 6.75 6.75 6.75 6.75-3.02 6.75-6.75S10.48 0 6.75 0Z"></path>
		<path style="fill:#fff" transform="translate(143.1 49.5)" d="M6.75 0C3.02 0 0 3.02 0 6.75s3.02 6.75 6.75 6.75 6.75-3.02 6.75-6.75S10.48 0 6.75 0Z"></path>
		<path style="fill:#fff" transform="translate(143.1 117.9)" d="M6.75 0C3.02 0 0 3.02 0 6.75s3.02 6.75 6.75 6.75 6.75-3.02 6.75-6.75S10.48 0 6.75 0Z"></path>
		<path style="fill:#fff" transform="translate(83.7 152.1)" d="M6.75 0C3.02 0 0 3.02 0 6.75s3.02 6.75 6.75 6.75 6.75-3.02 6.75-6.75S10.48 0 6.75 0Z"></path>
		<path style="fill:#fff" transform="translate(24.3 117.9)" d="M6.75 0C3.02 0 0 3.02 0 6.75s3.02 6.75 6.75 6.75 6.75-3.02 6.75-6.75S10.48 0 6.75 0Z"></path>
		<path style="fill:#fff" transform="translate(24.3 49.5)" d="M6.75 0C3.02 0 0 3.02 0 6.75s3.02 6.75 6.75 6.75 6.75-3.02 6.75-6.75S10.48 0 6.75 0Z"></path>
	</g>
</svg>