<svg id="SvgjsSvg1001" width="431" height="202" xmlns="http://www.w3.org/2000/svg" version="1.1" xmlns:xlink="http://www.w3.org/1999/xlink" xmlns:svgjs="http://svgjs.com/svgjs"><defs id="SvgjsDefs1002"></defs><g id="SvgjsG1008" transform="translate(25,25)"><path id="SvgjsPath1009" d="M 0 4Q 0 0 4 0L 81 0Q 85 0 85 4L 85 29Q 85 33 81 33L 4 33Q 0 33 0 29Z" stroke="rgba(33,41,48,1)" stroke-width="2" fill-opacity="1" fill="#ffffff"></path><g id="SvgjsG1010"><text id="SvgjsText1011" font-family="微软雅黑" text-anchor="middle" font-size="13px" width="65px" fill="#323232" font-weight="400" align="middle" lineHeight="125%" anchor="middle" family="微软雅黑" size="13px" weight="400" font-style="" opacity="1" y="5.875" transform="rotate(0)"><tspan id="SvgjsTspan1012" dy="16" x="42.5"><tspan id="SvgjsTspan1013" style="text-decoration:;">BookStore</tspan></tspan></text></g></g><g id="SvgjsG1014" transform="translate(173,25)"><path id="SvgjsPath1015" d="M 0 4Q 0 0 4 0L 81 0Q 85 0 85 4L 85 29Q 85 33 81 33L 4 33Q 0 33 0 29Z" stroke="rgba(33,41,48,1)" stroke-width="2" fill-opacity="1" fill="#ffffff"></path><g id="SvgjsG1016"><text id="SvgjsText1017" font-family="微软雅黑" text-anchor="middle" font-size="13px" width="65px" fill="#323232" font-weight="400" align="middle" lineHeight="125%" anchor="middle" family="微软雅黑" size="13px" weight="400" font-style="" opacity="1" y="5.875" transform="rotate(0)"><tspan id="SvgjsTspan1018" dy="16" x="42.5"><tspan id="SvgjsTspan1019" style="text-decoration:;">Book</tspan></tspan></text></g></g><g id="SvgjsG1020" transform="translate(321,25)"><path id="SvgjsPath1021" d="M 0 4Q 0 0 4 0L 81 0Q 85 0 85 4L 85 29Q 85 33 81 33L 4 33Q 0 33 0 29Z" stroke="rgba(33,41,48,1)" stroke-width="2" fill-opacity="1" fill="#ffffff"></path><g id="SvgjsG1022"><text id="SvgjsText1023" font-family="微软雅黑" text-anchor="middle" font-size="13px" width="65px" fill="#323232" font-weight="400" align="middle" lineHeight="125%" anchor="middle" family="微软雅黑" size="13px" weight="400" font-style="" opacity="1" y="5.875" transform="rotate(0)"><tspan id="SvgjsTspan1024" dy="16" x="42.5"><tspan id="SvgjsTspan1025" style="text-decoration:;">Author</tspan></tspan></text></g></g><g id="SvgjsG1026" transform="translate(25,144)"><path id="SvgjsPath1027" d="M 0 4Q 0 0 4 0L 83 0Q 87 0 87 4L 87 29Q 87 33 83 33L 4 33Q 0 33 0 29Z" stroke="rgba(33,41,48,1)" stroke-width="2" fill-opacity="1" fill="#ffffff"></path><g id="SvgjsG1028"><text id="SvgjsText1029" font-family="微软雅黑" text-anchor="middle" font-size="13px" width="67px" fill="#323232" font-weight="400" align="middle" lineHeight="125%" anchor="middle" family="微软雅黑" size="13px" weight="400" font-style="" opacity="1" y="5.875" transform="rotate(0)"><tspan id="SvgjsTspan1030" dy="16" x="43.5"><tspan id="SvgjsTspan1031" style="text-decoration:;">TreeNode</tspan></tspan></text></g></g><g id="SvgjsG1032"><path id="SvgjsPath1033" d="M111 42L141.5 42L141.5 42L172 42" stroke="#7f7f7f" stroke-width="2" fill="none"></path><rect id="SvgjsRect1034" width="21" height="16" x="131" y="34" fill="#ffffff"></rect><text id="SvgjsText1035" font-family="微软雅黑" text-anchor="middle" font-size="13px" width="21px" fill="#323232" font-weight="400" align="top" lineHeight="16px" anchor="middle" family="微软雅黑" size="13px" weight="400" font-style="" opacity="1" y="31.375" transform="rotate(0)"><tspan id="SvgjsTspan1036" dy="16" x="141.5"><tspan id="SvgjsTspan1037" style="text-decoration:;">0:N</tspan></tspan></text></g><g id="SvgjsG1038"><path id="SvgjsPath1039" d="M259 42L289.5 42L289.5 42L320 42" stroke="#7f8b98" stroke-width="2" fill="none"></path><rect id="SvgjsRect1040" width="24" height="16" x="277.5" y="34" fill="#ffffff"></rect><text id="SvgjsText1041" font-family="微软雅黑" text-anchor="middle" font-size="13px" width="24px" fill="#323232" font-weight="400" align="top" lineHeight="16px" anchor="middle" family="微软雅黑" size="13px" weight="400" font-style="" opacity="1" y="31.375" transform="rotate(0)"><tspan id="SvgjsTspan1042" dy="16" x="289.5"><tspan id="SvgjsTspan1043" style="text-decoration:;">M:N</tspan></tspan></text></g><g id="SvgjsG1044"><path id="SvgjsPath1045" d="M68.98333564766601 143.0001388599604L68.5 114L142 114L142 161L113 161" stroke="#7f8b98" stroke-width="2" fill="none"></path><rect id="SvgjsRect1046" width="21" height="16" x="118.24791681132251" y="106" fill="#ffffff"></rect><text id="SvgjsText1047" font-family="微软雅黑" text-anchor="middle" font-size="13px" width="21px" fill="#323232" font-weight="400" align="top" lineHeight="16px" anchor="middle" family="微软雅黑" size="13px" weight="400" font-style="" opacity="1" y="103.375" transform="rotate(0)"><tspan id="SvgjsTspan1048" dy="16" x="128.7479168113225"><tspan id="SvgjsTspan1049" style="text-decoration:;">0:N</tspan></tspan></text></g></svg>